<svg width="1268" height="235" viewBox="0 0 1268 235" fill="none" xmlns="http://www.w3.org/2000/svg">
<path d="M165.33 39.05C169.403 35.67 171.44 31.25 171.44 25.79C171.44 20.33 169.447 15.9967 165.46 12.79C161.473 9.49666 156.447 7.85 150.38 7.85H138.16C134.693 7.85 132.96 9.58333 132.96 13.05V42.3C132.96 43.4267 133.437 43.99 134.39 43.99H150.38C156.36 43.99 161.343 42.3433 165.33 39.05ZM154.8 1.99999C163.12 1.99999 169.923 4.12333 175.21 8.37C180.583 12.6167 183.27 18.25 183.27 25.27C183.27 32.2033 180.627 37.9667 175.34 42.56C170.14 47.0667 164.333 49.4067 157.92 49.58L157.79 49.84C159.61 50.4467 161.04 51.5733 162.08 53.22L181.71 84.42C183.53 87.4533 186.39 89.23 190.29 89.75L192.63 90.01C193.757 90.1833 194.32 90.7467 194.32 91.7C194.32 92.9133 193.67 93.52 192.37 93.52C184.05 93.1733 178.85 93 176.77 93C174.777 93 173.217 92.1333 172.09 90.4L150.12 53.87C148.387 51.1833 146.48 49.84 144.4 49.84C144.4 49.84 144.357 49.84 144.27 49.84H134.91C133.61 49.84 132.96 50.36 132.96 51.4V84.42C132.96 85.98 133.523 87.2367 134.65 88.19C135.777 89.1433 137.163 89.6633 138.81 89.75L144.27 90.01C145.223 90.01 145.7 90.6167 145.7 91.83C145.7 92.9567 145.093 93.52 143.88 93.52L127.63 93L113.2 93.52C112.073 93.52 111.423 93 111.25 91.96C111.25 90.7467 111.77 90.0967 112.81 90.01L116.58 89.75C120.133 89.49 121.91 87.7133 121.91 84.42V10.58C121.91 7.46 119.917 5.72666 115.93 5.38L112.16 4.98999C111.207 4.81666 110.73 4.25333 110.73 3.29999C110.73 2.08666 111.337 1.47999 112.55 1.47999L130.49 1.99999H154.8ZM262.191 93H213.441L198.751 93.52C197.538 93.52 196.931 92.9567 196.931 91.83C196.931 90.6167 197.408 90.01 198.361 90.01L202.131 89.75C203.865 89.5767 205.295 89.0567 206.421 88.19C207.548 87.2367 208.111 85.98 208.111 84.42V10.58C208.111 7.46 206.118 5.72666 202.131 5.38L198.361 4.98999C197.408 4.98999 196.931 4.42666 196.931 3.29999C196.931 2.08666 197.538 1.47999 198.751 1.47999L213.441 1.99999H259.591C261.238 1.99999 262.581 2.51999 263.621 3.56C264.661 4.51333 265.268 5.72666 265.441 7.2L267.261 19.16C267.435 20.72 266.785 21.5 265.311 21.5C263.925 21.5 263.015 20.8067 262.581 19.42C261.281 15.26 259.331 12.3133 256.731 10.58C254.131 8.84666 250.535 7.97999 245.941 7.97999H225.531C223.625 7.97999 222.065 8.54333 220.851 9.67C219.725 10.71 219.161 12.1833 219.161 14.09V41.39C219.161 42.5167 219.725 43.08 220.851 43.08H245.031C246.245 43.08 247.198 42.7767 247.891 42.17C248.585 41.5633 249.018 41 249.191 40.48C249.451 39.96 249.798 39.0067 250.231 37.62L250.751 35.93C251.011 34.89 251.661 34.37 252.701 34.37C253.741 34.37 254.261 34.9767 254.261 36.19L253.741 47.24L254.261 57.77C254.261 58.8967 253.698 59.5467 252.571 59.72C251.531 59.72 250.925 59.2 250.751 58.16L250.361 55.82C249.581 51.3133 247.805 49.06 245.031 49.06H220.721C219.681 49.06 219.161 49.6667 219.161 50.88V81.04C219.161 82.86 219.725 84.3333 220.851 85.46C222.065 86.5 223.625 87.02 225.531 87.02H246.981C251.488 87.02 255.345 85.9367 258.551 83.77C261.845 81.5167 264.141 78.2667 265.441 74.02C265.875 72.6333 266.568 71.94 267.521 71.94C268.561 71.94 269.255 72.2 269.601 72.72C270.035 73.1533 270.208 73.6733 270.121 74.28L268.041 87.8C267.868 89.2733 267.218 90.53 266.091 91.57C265.051 92.5233 263.751 93 262.191 93ZM304.934 57.25H333.924C334.877 57.25 335.18 56.73 334.834 55.69L319.364 15.91L303.894 55.95C303.634 56.8167 303.98 57.25 304.934 57.25ZM292.844 84.42C292.67 84.94 292.584 85.5467 292.584 86.24C292.584 86.8467 292.93 87.5833 293.624 88.45C294.317 89.23 295.27 89.6633 296.484 89.75L299.344 90.01C300.47 90.1833 301.034 90.7467 301.034 91.7C301.034 92.9133 300.384 93.52 299.084 93.52L287.774 93L275.944 93.52C274.73 93.52 274.124 92.9567 274.124 91.83C274.124 90.6167 274.6 90.01 275.554 90.01L278.024 89.75C281.75 89.3167 284.264 87.54 285.564 84.42L318.974 2.12999C319.32 1.09 320.317 0.569997 321.964 0.569997C323.697 0.569997 324.78 1.09 325.214 2.12999L358.494 84.42C359.62 87.6267 362.09 89.4033 365.904 89.75L368.634 90.01C368.98 90.01 369.284 90.1833 369.544 90.53C369.804 90.8767 369.934 91.2233 369.934 91.57C369.934 92.87 369.327 93.52 368.114 93.52L353.164 93L339.774 93.52C338.56 93.52 337.954 93 337.954 91.96C337.954 90.7467 338.474 90.0967 339.514 90.01L342.504 89.75C343.63 89.6633 344.54 89.23 345.234 88.45C346.014 87.67 346.404 86.9333 346.404 86.24C346.404 85.5467 346.274 84.94 346.014 84.42L338.344 64.53C338.084 63.6633 337.39 63.23 336.264 63.23H302.594C301.554 63.23 300.86 63.6633 300.514 64.53L292.844 84.42ZM412.937 1.99999C426.804 1.99999 437.854 6.02999 446.087 14.09C454.321 22.0633 458.437 32.68 458.437 45.94C458.437 59.2 454.147 70.38 445.567 79.48C437.074 88.4933 426.197 93 412.937 93H390.577L374.327 93.65C373.114 93.65 372.507 93.0867 372.507 91.96C372.507 90.7467 372.984 90.14 373.937 90.14L377.707 89.88C379.441 89.7067 380.871 89.1867 381.997 88.32C383.124 87.3667 383.687 86.11 383.687 84.55V10.58C383.687 7.46 381.694 5.72666 377.707 5.38L373.937 4.98999C372.984 4.81666 372.507 4.25333 372.507 3.29999C372.507 2.08666 373.114 1.47999 374.327 1.47999L390.577 1.99999H412.937ZM438.547 21.5C435.947 17.34 432.437 14.0467 428.017 11.62C423.597 9.19333 418.527 7.97999 412.807 7.97999H401.107C399.201 7.97999 397.641 8.5 396.427 9.54C395.301 10.58 394.737 12.0967 394.737 14.09V81.04C394.737 82.86 395.301 84.3333 396.427 85.46C397.641 86.5 399.201 87.02 401.107 87.02H413.457C423.424 87.02 431.397 83.5967 437.377 76.75C443.357 69.9033 446.347 61.02 446.347 50.1C446.347 39.18 443.747 29.6467 438.547 21.5ZM549.23 1.61C550.444 1.61 551.05 2.13 551.05 3.16999C551.05 4.21 550.574 4.81666 549.62 4.98999L545.85 5.38C542.99 5.64 540.52 7.37333 538.44 10.58L513.09 51.14C512.05 52.96 511.444 54.9967 511.27 57.25V84.42C511.27 85.98 511.834 87.2367 512.96 88.19C514.087 89.0567 515.474 89.5767 517.12 89.75L520.89 90.01C521.93 90.01 522.45 90.5733 522.45 91.7C522.45 92.22 522.234 92.6533 521.8 93C521.454 93.3467 521.064 93.52 520.63 93.52L505.94 93L492.94 93.52C491.727 93.52 491.12 93 491.12 91.96C491.12 90.8333 491.597 90.1833 492.55 90.01L494.76 89.75C498.314 89.3167 500.09 87.54 500.09 84.42V59.07C500.09 57.4233 499.7 55.9067 498.92 54.52L470.58 10.58C468.5 7.37333 465.987 5.64 463.04 5.38L459.27 4.98999C458.317 4.81666 457.84 4.21 457.84 3.16999C457.84 2.13 458.447 1.61 459.66 1.61L475.13 1.99999L488.91 1.74C490.21 1.74 490.86 2.30333 490.86 3.43C490.86 4.55666 490.34 5.16333 489.3 5.25L486.83 5.51C485.27 5.68333 484.23 6.33333 483.71 7.45999C483.277 8.58666 483.407 9.62666 484.1 10.58L506.72 47.76C507.067 48.3667 507.457 48.67 507.89 48.67C508.324 48.67 508.714 48.4533 509.06 48.02L531.29 10.58C531.984 9.62666 532.07 8.63 531.55 7.59C531.117 6.46333 530.12 5.77 528.56 5.51L526.09 5.25C524.877 5.07666 524.357 4.47 524.53 3.43C524.704 2.30333 525.354 1.74 526.48 1.74L536.62 1.99999L549.23 1.61ZM626.255 11.49V84.42C626.255 85.98 626.819 87.2367 627.945 88.19C629.072 89.0567 630.459 89.5767 632.105 89.75L635.875 90.01C636.915 90.01 637.435 90.5733 637.435 91.7C637.435 92.22 637.219 92.6533 636.785 93C636.439 93.3467 636.049 93.52 635.615 93.52L620.925 93L604.805 93.52C604.372 93.52 603.939 93.3467 603.505 93C603.159 92.6533 602.985 92.22 602.985 91.7C602.985 90.5733 603.505 90.01 604.545 90.01L609.355 89.75C611.002 89.5767 612.389 89.0567 613.515 88.19C614.642 87.2367 615.205 85.98 615.205 84.42V11.49C615.205 9.14999 614.122 7.97999 611.955 7.97999H601.035C596.789 7.97999 593.452 9.14999 591.025 11.49C588.599 13.7433 586.692 17.1233 585.305 21.63C584.785 22.93 584.049 23.58 583.095 23.58C582.229 23.58 581.579 23.3633 581.145 22.93C580.712 22.41 580.539 21.8467 580.625 21.24L581.665 4.46999C581.839 2.82333 582.792 1.99999 584.525 1.99999H656.545C658.365 1.99999 659.362 3.03999 659.535 5.11999L660.835 21.24C660.922 21.9333 660.749 22.4967 660.315 22.93C659.882 23.3633 659.189 23.58 658.235 23.58C657.369 23.58 656.675 22.93 656.155 21.63C654.595 17.0367 652.602 13.6133 650.175 11.36C647.835 9.10666 644.585 7.97999 640.425 7.97999H629.505C627.339 7.97999 626.255 9.14999 626.255 11.49ZM713.237 0.569997C726.931 0.569997 737.894 4.94666 746.127 13.7C754.447 22.3667 758.607 33.5467 758.607 47.24C758.607 60.9333 754.361 72.2433 745.867 81.17C737.461 90.01 726.497 94.43 712.977 94.43C699.544 94.43 688.624 90.01 680.217 81.17C671.811 72.33 667.607 61.15 667.607 47.63C667.607 34.0233 671.811 22.8 680.217 13.96C688.624 5.03333 699.631 0.569997 713.237 0.569997ZM738.847 20.98C736.334 16.56 732.867 13.05 728.447 10.45C724.027 7.85 718.871 6.55 712.977 6.55C702.404 6.55 694.214 9.8 688.407 16.3C682.687 22.7133 679.827 31.4667 679.827 42.56C679.827 54.0867 682.427 64.4 687.627 73.5C690.141 78.0067 693.651 81.6467 698.157 84.42C702.664 87.1067 707.821 88.45 713.627 88.45C723.941 88.45 731.957 85.07 737.677 78.31C743.484 71.55 746.387 62.45 746.387 51.01C746.387 39.57 743.874 29.56 738.847 20.98ZM916.593 91.7C916.593 92.22 916.376 92.6533 915.943 93C915.596 93.3467 915.206 93.52 914.773 93.52L900.083 93L887.213 93.52C886 93.52 885.393 93 885.393 91.96C885.393 90.8333 885.87 90.1833 886.823 90.01L889.033 89.75C892.673 89.3167 894.493 87.54 894.493 84.42L893.453 22.93C893.453 22.0633 893.193 21.63 892.673 21.63C892.413 21.63 892.24 21.76 892.153 22.02L856.793 92.74C856.36 93.52 855.84 93.91 855.233 93.91C854.626 93.91 854.15 93.52 853.803 92.74L818.313 24.1C818.226 23.84 818.053 23.71 817.793 23.71C817.273 23.71 817.013 24.1433 817.013 25.01L816.233 84.42C816.233 87.28 817.966 89.0133 821.433 89.62L823.643 90.01C824.77 90.1833 825.333 90.79 825.333 91.83C825.333 92.87 824.683 93.39 823.383 93.39L812.723 93L800.113 93.39C798.9 93.39 798.293 92.87 798.293 91.83C798.293 90.79 798.77 90.1833 799.723 90.01L803.493 89.62C807.48 89.1867 809.473 87.4533 809.473 84.42L811.033 10.58C811.12 7.54666 809.386 5.81333 805.833 5.38L803.493 5.11999C802.453 4.94666 801.933 4.33999 801.933 3.29999C801.933 2.17333 802.583 1.61 803.883 1.61L815.323 1.99999C818.27 2.08666 820.133 2.95333 820.913 4.6L857.703 77.4L893.583 4.6C894.363 3.04 896.27 2.17333 899.303 1.99999L910.873 1.61C912.26 1.61 912.953 2.17333 912.953 3.29999C912.953 4.33999 912.433 4.94666 911.393 5.11999L909.053 5.38C905.673 5.64 903.983 7.37333 903.983 10.58L905.543 84.42C905.543 85.98 906.063 87.2367 907.103 88.19C908.23 89.0567 909.616 89.5767 911.263 89.75L915.033 90.01C916.073 90.01 916.593 90.5733 916.593 91.7ZM949.348 57.25H978.338C979.291 57.25 979.595 56.73 979.248 55.69L963.778 15.91L948.308 55.95C948.048 56.8167 948.395 57.25 949.348 57.25ZM937.258 84.42C937.085 84.94 936.998 85.5467 936.998 86.24C936.998 86.8467 937.345 87.5833 938.038 88.45C938.731 89.23 939.685 89.6633 940.898 89.75L943.758 90.01C944.885 90.1833 945.448 90.7467 945.448 91.7C945.448 92.9133 944.798 93.52 943.498 93.52L932.188 93L920.358 93.52C919.145 93.52 918.538 92.9567 918.538 91.83C918.538 90.6167 919.015 90.01 919.968 90.01L922.438 89.75C926.165 89.3167 928.678 87.54 929.978 84.42L963.388 2.12999C963.735 1.09 964.731 0.569997 966.378 0.569997C968.111 0.569997 969.195 1.09 969.628 2.12999L1002.91 84.42C1004.03 87.6267 1006.5 89.4033 1010.32 89.75L1013.05 90.01C1013.39 90.01 1013.7 90.1833 1013.96 90.53C1014.22 90.8767 1014.35 91.2233 1014.35 91.57C1014.35 92.87 1013.74 93.52 1012.53 93.52L997.578 93L984.188 93.52C982.975 93.52 982.368 93 982.368 91.96C982.368 90.7467 982.888 90.0967 983.928 90.01L986.918 89.75C988.045 89.6633 988.955 89.23 989.648 88.45C990.428 87.67 990.818 86.9333 990.818 86.24C990.818 85.5467 990.688 84.94 990.428 84.42L982.758 64.53C982.498 63.6633 981.805 63.23 980.678 63.23H947.008C945.968 63.23 945.275 63.6633 944.928 64.53L937.258 84.42ZM1079.06 6.42L1078.41 3.04C1078.41 2.08666 1078.97 1.61 1080.1 1.61L1087.38 1.99999L1100.12 1.47999C1101.42 1.47999 1102.07 2.08666 1102.07 3.29999C1102.07 4.42666 1101.51 4.98999 1100.38 4.98999L1096.48 5.38C1093.53 5.64 1090.67 7.37333 1087.9 10.58L1059.3 42.82C1058.09 44.2067 1056.57 45.29 1054.75 46.07C1056.57 46.85 1058.09 47.9767 1059.3 49.45L1091.28 84.16C1094.49 87.54 1097.35 89.3167 1099.86 89.49L1103.63 89.75C1104.76 89.9233 1105.32 90.5733 1105.32 91.7C1105.32 92.74 1104.71 93.26 1103.5 93.26C1093.27 93.0867 1087.29 93 1085.56 93C1083.91 93 1082.22 92.0467 1080.49 90.14L1049.42 54.65C1047.25 52.05 1045.22 50.75 1043.31 50.75C1043.31 50.75 1043.27 50.75 1043.18 50.75H1040.06C1039.45 50.75 1039.15 51.2267 1039.15 52.18V84.42C1039.15 87.8 1040.32 89.62 1042.66 89.88L1043.96 90.01C1044.91 90.1833 1045.39 90.7467 1045.39 91.7C1045.39 92.9133 1044.78 93.52 1043.57 93.52L1033.82 93L1020.95 93.52C1019.65 93.52 1019 93 1019 91.96C1019 90.8333 1019.52 90.1833 1020.56 90.01L1022.77 89.75C1026.32 89.3167 1028.1 87.54 1028.1 84.42V10.58C1028.1 7.63333 1026.11 5.9 1022.12 5.38L1018.35 4.98999C1017.4 4.81666 1016.92 4.25333 1016.92 3.29999C1016.92 2.08666 1017.53 1.47999 1018.74 1.47999L1033.43 1.99999L1043.57 1.47999C1044.87 1.47999 1045.52 2.04333 1045.52 3.16999C1045.52 4.21 1044.96 4.81666 1043.83 4.98999L1042.66 5.11999C1040.32 5.55333 1039.15 7.37333 1039.15 10.58V43.21C1039.15 44.25 1039.54 44.77 1040.32 44.77H1043.7C1045.78 44.77 1047.9 43.47 1050.07 40.87L1077.37 9.79999C1078.5 8.58666 1079.06 7.46 1079.06 6.42ZM1171.94 93H1123.19L1108.5 93.52C1107.28 93.52 1106.68 92.9567 1106.68 91.83C1106.68 90.6167 1107.15 90.01 1108.11 90.01L1111.88 89.75C1113.61 89.5767 1115.04 89.0567 1116.17 88.19C1117.29 87.2367 1117.86 85.98 1117.86 84.42V10.58C1117.86 7.46 1115.86 5.72666 1111.88 5.38L1108.11 4.98999C1107.15 4.98999 1106.68 4.42666 1106.68 3.29999C1106.68 2.08666 1107.28 1.47999 1108.5 1.47999L1123.19 1.99999H1169.34C1170.98 1.99999 1172.33 2.51999 1173.37 3.56C1174.41 4.51333 1175.01 5.72666 1175.19 7.2L1177.01 19.16C1177.18 20.72 1176.53 21.5 1175.06 21.5C1173.67 21.5 1172.76 20.8067 1172.33 19.42C1171.03 15.26 1169.08 12.3133 1166.48 10.58C1163.88 8.84666 1160.28 7.97999 1155.69 7.97999H1135.28C1133.37 7.97999 1131.81 8.54333 1130.6 9.67C1129.47 10.71 1128.91 12.1833 1128.91 14.09V41.39C1128.91 42.5167 1129.47 43.08 1130.6 43.08H1154.78C1155.99 43.08 1156.94 42.7767 1157.64 42.17C1158.33 41.5633 1158.76 41 1158.94 40.48C1159.2 39.96 1159.54 39.0067 1159.98 37.62L1160.5 35.93C1160.76 34.89 1161.41 34.37 1162.45 34.37C1163.49 34.37 1164.01 34.9767 1164.01 36.19L1163.49 47.24L1164.01 57.77C1164.01 58.8967 1163.44 59.5467 1162.32 59.72C1161.28 59.72 1160.67 59.2 1160.5 58.16L1160.11 55.82C1159.33 51.3133 1157.55 49.06 1154.78 49.06H1130.47C1129.43 49.06 1128.91 49.6667 1128.91 50.88V81.04C1128.91 82.86 1129.47 84.3333 1130.6 85.46C1131.81 86.5 1133.37 87.02 1135.28 87.02H1156.73C1161.23 87.02 1165.09 85.9367 1168.3 83.77C1171.59 81.5167 1173.89 78.2667 1175.19 74.02C1175.62 72.6333 1176.31 71.94 1177.27 71.94C1178.31 71.94 1179 72.2 1179.35 72.72C1179.78 73.1533 1179.95 73.6733 1179.87 74.28L1177.79 87.8C1177.61 89.2733 1176.96 90.53 1175.84 91.57C1174.8 92.5233 1173.5 93 1171.94 93ZM61.6353 209.47C61.6353 217.617 58.5586 223.813 52.4053 228.06C46.3386 232.307 38.9286 234.43 30.1753 234.43C21.5086 234.43 14.3586 233.39 8.72527 231.31C3.17861 229.23 0.405274 226.933 0.405274 224.42V209.21C0.405274 207.39 1.09861 206.48 2.48527 206.48C3.61194 206.48 4.39194 207.303 4.82527 208.95C7.07861 215.623 9.98194 220.607 13.5353 223.9C17.1753 227.107 22.2453 228.71 28.7453 228.71C35.2453 228.71 40.4886 227.237 44.4753 224.29C48.5486 221.343 50.5853 217.27 50.5853 212.07C50.5853 206.35 47.3786 201.54 40.9653 197.64C38.1053 195.907 34.9419 194.217 31.4753 192.57C28.0086 190.923 24.5419 189.233 21.0753 187.5C17.6086 185.68 14.4453 183.73 11.5853 181.65C5.17194 176.97 1.96527 171.077 1.96527 163.97C1.96527 156.777 4.69527 151.1 10.1553 146.94C15.7019 142.693 22.2019 140.57 29.6553 140.57C37.1086 140.57 43.4353 141.523 48.6353 143.43C53.8353 145.25 56.4353 147.287 56.4353 149.54V162.67C56.4353 164.403 55.7853 165.27 54.4853 165.27C53.2719 165.27 52.3619 164.403 51.7553 162.67C49.9353 157.123 47.5519 153.007 44.6053 150.32C41.6586 147.633 37.2386 146.29 31.3453 146.29C25.5386 146.29 20.9453 147.677 17.5653 150.45C14.1853 153.223 12.4953 156.69 12.4953 160.85C12.4953 164.923 14.1853 168.477 17.5653 171.51C20.9453 174.457 25.0186 177.1 29.7853 179.44C34.6386 181.693 39.4486 184.077 44.2153 186.59C49.0686 189.017 53.1853 192.18 56.5653 196.08C59.9453 199.98 61.6353 204.443 61.6353 209.47ZM134.213 146.42L133.563 143.04C133.563 142.087 134.126 141.61 135.253 141.61L142.533 142L155.273 141.48C156.573 141.48 157.223 142.087 157.223 143.3C157.223 144.427 156.66 144.99 155.533 144.99L151.633 145.38C148.686 145.64 145.826 147.373 143.053 150.58L114.453 182.82C113.24 184.207 111.723 185.29 109.903 186.07C111.723 186.85 113.24 187.977 114.453 189.45L146.433 224.16C149.64 227.54 152.5 229.317 155.013 229.49L158.783 229.75C159.91 229.923 160.473 230.573 160.473 231.7C160.473 232.74 159.866 233.26 158.653 233.26C148.426 233.087 142.446 233 140.713 233C139.066 233 137.376 232.047 135.643 230.14L104.573 194.65C102.406 192.05 100.37 190.75 98.4629 190.75C98.4629 190.75 98.4195 190.75 98.3329 190.75H95.2129C94.6062 190.75 94.3029 191.227 94.3029 192.18V224.42C94.3029 227.8 95.4729 229.62 97.8129 229.88L99.1129 230.01C100.066 230.183 100.543 230.747 100.543 231.7C100.543 232.913 99.9362 233.52 98.7229 233.52L88.9729 233L76.1029 233.52C74.8029 233.52 74.1529 233 74.1529 231.96C74.1529 230.833 74.6729 230.183 75.7129 230.01L77.9229 229.75C81.4762 229.317 83.2529 227.54 83.2529 224.42V150.58C83.2529 147.633 81.2595 145.9 77.2729 145.38L73.5029 144.99C72.5495 144.817 72.0729 144.253 72.0729 143.3C72.0729 142.087 72.6795 141.48 73.8929 141.48L88.5829 142L98.7229 141.48C100.023 141.48 100.673 142.043 100.673 143.17C100.673 144.21 100.11 144.817 98.9829 144.99L97.8129 145.12C95.4729 145.553 94.3029 147.373 94.3029 150.58V183.21C94.3029 184.25 94.6929 184.77 95.4729 184.77H98.8529C100.933 184.77 103.056 183.47 105.223 180.87L132.523 149.8C133.65 148.587 134.213 147.46 134.213 146.42ZM165.859 233.52C164.645 233.52 164.039 233 164.039 231.96C164.039 230.833 164.515 230.183 165.469 230.01L167.679 229.75C171.232 229.317 173.009 227.54 173.009 224.42V150.58C173.009 147.46 171.015 145.727 167.029 145.38L163.259 144.99C162.305 144.817 161.829 144.253 161.829 143.3C161.829 142.087 162.435 141.48 163.649 141.48L178.339 142L191.209 141.48C192.509 141.48 193.159 142 193.159 143.04C193.159 144.253 192.595 144.903 191.469 144.99L189.259 145.38C185.792 145.987 184.059 147.72 184.059 150.58V224.42C184.059 225.98 184.622 227.237 185.749 228.19C186.875 229.057 188.262 229.577 189.909 229.75L193.679 230.01C194.719 230.01 195.239 230.573 195.239 231.7C195.239 232.22 195.022 232.653 194.589 233C194.242 233.347 193.852 233.52 193.419 233.52L178.729 233L165.859 233.52ZM278.878 213.63V150.58C278.878 147.547 276.928 145.813 273.028 145.38L269.258 144.99C268.305 144.817 267.828 144.21 267.828 143.17C267.828 142.13 268.435 141.61 269.648 141.61L282.258 142L292.398 141.61C293.698 141.61 294.348 142.13 294.348 143.17C294.348 144.21 293.785 144.817 292.658 144.99L290.448 145.38C286.982 145.987 285.248 147.72 285.248 150.58V232.87C285.248 233.91 284.772 234.43 283.818 234.43H282.128C279.962 234.43 278.098 233.39 276.538 231.31L221.808 161.24C221.635 161.067 221.375 160.98 221.028 160.98C220.682 160.98 220.508 161.413 220.508 162.28V224.42C220.508 227.28 222.242 229.013 225.708 229.62L227.918 230.01C229.045 230.183 229.608 230.79 229.608 231.83C229.608 232.87 228.958 233.39 227.658 233.39L217.518 233L204.908 233.39C203.695 233.39 203.088 232.87 203.088 231.83C203.088 230.79 203.565 230.183 204.518 230.01L208.288 229.62C212.275 229.187 214.268 227.453 214.268 224.42V150.58C214.268 147.547 212.535 145.813 209.068 145.38L206.728 145.12C205.688 144.947 205.168 144.34 205.168 143.3C205.168 142.173 205.818 141.61 207.118 141.61L217.518 142C220.032 142.087 221.938 142.91 223.238 144.47L277.448 214.02C277.708 214.28 278.012 214.41 278.358 214.41C278.705 214.41 278.878 214.15 278.878 213.63ZM380.242 164.23C380.242 164.837 380.025 165.443 379.592 166.05C379.245 166.57 378.769 166.83 378.162 166.83C376.689 166.83 375.735 165.963 375.302 164.23C373.742 158.423 370.839 153.873 366.592 150.58C362.345 147.287 357.319 145.64 351.512 145.64C341.025 145.64 332.662 149.237 326.422 156.43C320.269 163.623 317.192 172.81 317.192 183.99C317.192 195.17 320.442 205.137 326.942 213.89C333.529 222.643 341.719 227.02 351.512 227.02C357.145 227.02 361.349 226.5 364.122 225.46C366.982 224.333 368.889 223.553 369.842 223.12C370.882 222.6 372.182 221.82 373.742 220.78C375.302 219.74 376.169 219.177 376.342 219.09C377.902 218.137 378.985 218.007 379.592 218.7C380.199 219.307 380.502 219.913 380.502 220.52C380.502 221.127 380.155 221.777 379.462 222.47C376.515 225.763 373.482 228.233 370.362 229.88C364.729 232.913 358.012 234.43 350.212 234.43C336.692 234.43 325.729 229.967 317.322 221.04C308.915 212.113 304.712 200.89 304.712 187.37C304.712 173.85 309.002 162.67 317.582 153.83C326.162 144.99 337.472 140.57 351.512 140.57C358.792 140.57 365.379 141.567 371.272 143.56C377.252 145.553 380.242 147.503 380.242 149.41V164.23ZM416.462 197.25H445.452C446.405 197.25 446.709 196.73 446.362 195.69L430.892 155.91L415.422 195.95C415.162 196.817 415.509 197.25 416.462 197.25ZM404.372 224.42C404.199 224.94 404.112 225.547 404.112 226.24C404.112 226.847 404.459 227.583 405.152 228.45C405.845 229.23 406.799 229.663 408.012 229.75L410.872 230.01C411.999 230.183 412.562 230.747 412.562 231.7C412.562 232.913 411.912 233.52 410.612 233.52L399.302 233L387.472 233.52C386.259 233.52 385.652 232.957 385.652 231.83C385.652 230.617 386.129 230.01 387.082 230.01L389.552 229.75C393.279 229.317 395.792 227.54 397.092 224.42L430.502 142.13C430.849 141.09 431.845 140.57 433.492 140.57C435.225 140.57 436.309 141.09 436.742 142.13L470.022 224.42C471.149 227.627 473.619 229.403 477.432 229.75L480.162 230.01C480.509 230.01 480.812 230.183 481.072 230.53C481.332 230.877 481.462 231.223 481.462 231.57C481.462 232.87 480.855 233.52 479.642 233.52L464.692 233L451.302 233.52C450.089 233.52 449.482 233 449.482 231.96C449.482 230.747 450.002 230.097 451.042 230.01L454.032 229.75C455.159 229.663 456.069 229.23 456.762 228.45C457.542 227.67 457.932 226.933 457.932 226.24C457.932 225.547 457.802 224.94 457.542 224.42L449.872 204.53C449.612 203.663 448.919 203.23 447.792 203.23H414.122C413.082 203.23 412.389 203.663 412.042 204.53L404.372 224.42ZM538.636 179.05C542.709 175.67 544.746 171.25 544.746 165.79C544.746 160.33 542.752 155.997 538.766 152.79C534.779 149.497 529.752 147.85 523.686 147.85H511.466C507.999 147.85 506.266 149.583 506.266 153.05V182.3C506.266 183.427 506.742 183.99 507.696 183.99H523.686C529.666 183.99 534.649 182.343 538.636 179.05ZM528.106 142C536.426 142 543.229 144.123 548.516 148.37C553.889 152.617 556.576 158.25 556.576 165.27C556.576 172.203 553.932 177.967 548.646 182.56C543.446 187.067 537.639 189.407 531.226 189.58L531.096 189.84C532.916 190.447 534.346 191.573 535.386 193.22L555.016 224.42C556.836 227.453 559.696 229.23 563.596 229.75L565.936 230.01C567.062 230.183 567.626 230.747 567.626 231.7C567.626 232.913 566.976 233.52 565.676 233.52C557.356 233.173 552.156 233 550.076 233C548.082 233 546.522 232.133 545.396 230.4L523.426 193.87C521.692 191.183 519.786 189.84 517.706 189.84C517.706 189.84 517.662 189.84 517.576 189.84H508.216C506.916 189.84 506.266 190.36 506.266 191.4V224.42C506.266 225.98 506.829 227.237 507.956 228.19C509.082 229.143 510.469 229.663 512.116 229.75L517.576 230.01C518.529 230.01 519.006 230.617 519.006 231.83C519.006 232.957 518.399 233.52 517.186 233.52L500.936 233L486.506 233.52C485.379 233.52 484.729 233 484.556 231.96C484.556 230.747 485.076 230.097 486.116 230.01L489.886 229.75C493.439 229.49 495.216 227.713 495.216 224.42V150.58C495.216 147.46 493.222 145.727 489.236 145.38L485.466 144.99C484.512 144.817 484.036 144.253 484.036 143.3C484.036 142.087 484.642 141.48 485.856 141.48L503.796 142H528.106ZM635.497 233H586.747L572.057 233.52C570.844 233.52 570.237 232.957 570.237 231.83C570.237 230.617 570.714 230.01 571.667 230.01L575.437 229.75C577.17 229.577 578.6 229.057 579.727 228.19C580.854 227.237 581.417 225.98 581.417 224.42V150.58C581.417 147.46 579.424 145.727 575.437 145.38L571.667 144.99C570.714 144.99 570.237 144.427 570.237 143.3C570.237 142.087 570.844 141.48 572.057 141.48L586.747 142H632.897C634.544 142 635.887 142.52 636.927 143.56C637.967 144.513 638.574 145.727 638.747 147.2L640.567 159.16C640.74 160.72 640.09 161.5 638.617 161.5C637.23 161.5 636.32 160.807 635.887 159.42C634.587 155.26 632.637 152.313 630.037 150.58C627.437 148.847 623.84 147.98 619.247 147.98H598.837C596.93 147.98 595.37 148.543 594.157 149.67C593.03 150.71 592.467 152.183 592.467 154.09V181.39C592.467 182.517 593.03 183.08 594.157 183.08H618.337C619.55 183.08 620.504 182.777 621.197 182.17C621.89 181.563 622.324 181 622.497 180.48C622.757 179.96 623.104 179.007 623.537 177.62L624.057 175.93C624.317 174.89 624.967 174.37 626.007 174.37C627.047 174.37 627.567 174.977 627.567 176.19L627.047 187.24L627.567 197.77C627.567 198.897 627.004 199.547 625.877 199.72C624.837 199.72 624.23 199.2 624.057 198.16L623.667 195.82C622.887 191.313 621.11 189.06 618.337 189.06H594.027C592.987 189.06 592.467 189.667 592.467 190.88V221.04C592.467 222.86 593.03 224.333 594.157 225.46C595.37 226.5 596.93 227.02 598.837 227.02H620.287C624.794 227.02 628.65 225.937 631.857 223.77C635.15 221.517 637.447 218.267 638.747 214.02C639.18 212.633 639.874 211.94 640.827 211.94C641.867 211.94 642.56 212.2 642.907 212.72C643.34 213.153 643.514 213.673 643.427 214.28L641.347 227.8C641.174 229.273 640.524 230.53 639.397 231.57C638.357 232.523 637.057 233 635.497 233ZM746.42 209.47C746.42 217.617 743.344 223.813 737.19 228.06C731.124 232.307 723.714 234.43 714.96 234.43C706.294 234.43 699.144 233.39 693.51 231.31C687.964 229.23 685.19 226.933 685.19 224.42V209.21C685.19 207.39 685.884 206.48 687.27 206.48C688.397 206.48 689.177 207.303 689.61 208.95C691.864 215.623 694.767 220.607 698.32 223.9C701.96 227.107 707.03 228.71 713.53 228.71C720.03 228.71 725.274 227.237 729.26 224.29C733.334 221.343 735.37 217.27 735.37 212.07C735.37 206.35 732.164 201.54 725.75 197.64C722.89 195.907 719.727 194.217 716.26 192.57C712.794 190.923 709.327 189.233 705.86 187.5C702.394 185.68 699.23 183.73 696.37 181.65C689.957 176.97 686.75 171.077 686.75 163.97C686.75 156.777 689.48 151.1 694.94 146.94C700.487 142.693 706.987 140.57 714.44 140.57C721.894 140.57 728.22 141.523 733.42 143.43C738.62 145.25 741.22 147.287 741.22 149.54V162.67C741.22 164.403 740.57 165.27 739.27 165.27C738.057 165.27 737.147 164.403 736.54 162.67C734.72 157.123 732.337 153.007 729.39 150.32C726.444 147.633 722.024 146.29 716.13 146.29C710.324 146.29 705.73 147.677 702.35 150.45C698.97 153.223 697.28 156.69 697.28 160.85C697.28 164.923 698.97 168.477 702.35 171.51C705.73 174.457 709.804 177.1 714.57 179.44C719.424 181.693 724.234 184.077 729 186.59C733.854 189.017 737.97 192.18 741.35 196.08C744.73 199.98 746.42 204.443 746.42 209.47ZM760.888 233.52C759.675 233.52 759.068 233 759.068 231.96C759.068 230.833 759.545 230.183 760.498 230.01L762.708 229.75C766.261 229.317 768.038 227.54 768.038 224.42V150.58C768.038 147.46 766.045 145.727 762.058 145.38L758.288 144.99C757.335 144.817 756.858 144.253 756.858 143.3C756.858 142.087 757.465 141.48 758.678 141.48L773.368 142L786.238 141.48C787.538 141.48 788.188 142 788.188 143.04C788.188 144.253 787.625 144.903 786.498 144.99L784.288 145.38C780.821 145.987 779.088 147.72 779.088 150.58V224.42C779.088 225.98 779.651 227.237 780.778 228.19C781.905 229.057 783.291 229.577 784.938 229.75L788.708 230.01C789.748 230.01 790.268 230.573 790.268 231.7C790.268 232.22 790.051 232.653 789.618 233C789.271 233.347 788.881 233.52 788.448 233.52L773.758 233L760.888 233.52ZM915.768 231.7C915.768 232.22 915.551 232.653 915.118 233C914.771 233.347 914.381 233.52 913.948 233.52L899.258 233L886.388 233.52C885.174 233.52 884.568 233 884.568 231.96C884.568 230.833 885.044 230.183 885.998 230.01L888.208 229.75C891.848 229.317 893.668 227.54 893.668 224.42L892.628 162.93C892.628 162.063 892.368 161.63 891.848 161.63C891.588 161.63 891.414 161.76 891.328 162.02L855.968 232.74C855.534 233.52 855.014 233.91 854.408 233.91C853.801 233.91 853.324 233.52 852.978 232.74L817.488 164.1C817.401 163.84 817.228 163.71 816.968 163.71C816.448 163.71 816.188 164.143 816.188 165.01L815.408 224.42C815.408 227.28 817.141 229.013 820.608 229.62L822.818 230.01C823.944 230.183 824.508 230.79 824.508 231.83C824.508 232.87 823.858 233.39 822.558 233.39L811.898 233L799.288 233.39C798.074 233.39 797.468 232.87 797.468 231.83C797.468 230.79 797.944 230.183 798.898 230.01L802.668 229.62C806.654 229.187 808.648 227.453 808.648 224.42L810.208 150.58C810.294 147.547 808.561 145.813 805.008 145.38L802.668 145.12C801.628 144.947 801.108 144.34 801.108 143.3C801.108 142.173 801.758 141.61 803.058 141.61L814.498 142C817.444 142.087 819.308 142.953 820.088 144.6L856.878 217.4L892.758 144.6C893.538 143.04 895.444 142.173 898.478 142L910.048 141.61C911.434 141.61 912.128 142.173 912.128 143.3C912.128 144.34 911.608 144.947 910.568 145.12L908.228 145.38C904.848 145.64 903.158 147.373 903.158 150.58L904.718 224.42C904.718 225.98 905.238 227.237 906.278 228.19C907.404 229.057 908.791 229.577 910.438 229.75L914.208 230.01C915.248 230.01 915.768 230.573 915.768 231.7ZM974.783 182.04C978.683 178.227 980.633 173.373 980.633 167.48C980.633 161.587 978.683 156.82 974.783 153.18C970.883 149.54 965.336 147.72 958.143 147.72H950.343C946.876 147.72 945.143 149.453 945.143 152.92V185.94C945.143 187.067 945.619 187.63 946.573 187.63H958.143C965.336 187.63 970.883 185.767 974.783 182.04ZM960.873 142C970.839 142 978.596 144.297 984.143 148.89C989.776 153.483 992.593 159.593 992.593 167.22C992.593 174.76 989.863 181.043 984.403 186.07C978.943 191.097 971.619 193.61 962.433 193.61H947.093C945.793 193.61 945.143 194.13 945.143 195.17V224.42C945.143 225.98 945.706 227.237 946.833 228.19C947.959 229.143 949.346 229.663 950.993 229.75L956.453 230.01C957.406 230.01 957.883 230.617 957.883 231.83C957.883 232.957 957.276 233.52 956.063 233.52L939.813 233L925.383 233.52C924.083 233.52 923.433 233 923.433 231.96C923.433 230.747 923.953 230.097 924.993 230.01L928.763 229.75C932.316 229.49 934.093 227.713 934.093 224.42V150.58C934.093 147.46 932.099 145.727 928.113 145.38L924.343 144.99C923.389 144.817 922.913 144.253 922.913 143.3C922.913 142.087 923.519 141.48 924.733 141.48L942.673 142H960.873ZM1022.58 150.58V221.04C1022.58 222.86 1023.15 224.333 1024.27 225.46C1025.49 226.5 1027.05 227.02 1028.95 227.02H1047.8C1052.4 227.02 1056.34 225.937 1059.63 223.77C1062.93 221.517 1065.18 218.267 1066.39 214.02C1066.83 212.633 1067.74 211.94 1069.12 211.94C1070.51 211.94 1071.12 212.72 1070.94 214.28L1068.86 227.8C1068.69 229.273 1068.08 230.53 1067.04 231.57C1066 232.523 1064.66 233 1063.01 233H1016.86L1002.17 233.52C1000.96 233.52 1000.35 232.957 1000.35 231.83C1000.35 230.617 1000.83 230.01 1001.78 230.01L1005.55 229.75C1007.29 229.577 1008.72 229.057 1009.84 228.19C1010.97 227.237 1011.53 225.98 1011.53 224.42V150.58C1011.53 147.46 1009.54 145.727 1005.55 145.38L1001.78 144.99C1000.83 144.817 1000.35 144.253 1000.35 143.3C1000.35 142.087 1000.96 141.48 1002.17 141.48L1016.86 142L1029.73 141.48C1031.03 141.48 1031.68 142 1031.68 143.04C1031.68 144.253 1031.12 144.903 1029.99 144.99L1027.78 145.38C1024.32 145.987 1022.58 147.72 1022.58 150.58ZM1142.8 233H1094.05L1079.36 233.52C1078.15 233.52 1077.54 232.957 1077.54 231.83C1077.54 230.617 1078.02 230.01 1078.97 230.01L1082.74 229.75C1084.47 229.577 1085.9 229.057 1087.03 228.19C1088.16 227.237 1088.72 225.98 1088.72 224.42V150.58C1088.72 147.46 1086.73 145.727 1082.74 145.38L1078.97 144.99C1078.02 144.99 1077.54 144.427 1077.54 143.3C1077.54 142.087 1078.15 141.48 1079.36 141.48L1094.05 142H1140.2C1141.85 142 1143.19 142.52 1144.23 143.56C1145.27 144.513 1145.88 145.727 1146.05 147.2L1147.87 159.16C1148.04 160.72 1147.39 161.5 1145.92 161.5C1144.53 161.5 1143.62 160.807 1143.19 159.42C1141.89 155.26 1139.94 152.313 1137.34 150.58C1134.74 148.847 1131.14 147.98 1126.55 147.98H1106.14C1104.23 147.98 1102.67 148.543 1101.46 149.67C1100.33 150.71 1099.77 152.183 1099.77 154.09V181.39C1099.77 182.517 1100.33 183.08 1101.46 183.08H1125.64C1126.85 183.08 1127.81 182.777 1128.5 182.17C1129.19 181.563 1129.63 181 1129.8 180.48C1130.06 179.96 1130.41 179.007 1130.84 177.62L1131.36 175.93C1131.62 174.89 1132.27 174.37 1133.31 174.37C1134.35 174.37 1134.87 174.977 1134.87 176.19L1134.35 187.24L1134.87 197.77C1134.87 198.897 1134.31 199.547 1133.18 199.72C1132.14 199.72 1131.53 199.2 1131.36 198.16L1130.97 195.82C1130.19 191.313 1128.41 189.06 1125.64 189.06H1101.33C1100.29 189.06 1099.77 189.667 1099.77 190.88V221.04C1099.77 222.86 1100.33 224.333 1101.46 225.46C1102.67 226.5 1104.23 227.02 1106.14 227.02H1127.59C1132.1 227.02 1135.95 225.937 1139.16 223.77C1142.45 221.517 1144.75 218.267 1146.05 214.02C1146.48 212.633 1147.18 211.94 1148.13 211.94C1149.17 211.94 1149.86 212.2 1150.21 212.72C1150.64 213.153 1150.82 213.673 1150.73 214.28L1148.65 227.8C1148.48 229.273 1147.83 230.53 1146.7 231.57C1145.66 232.523 1144.36 233 1142.8 233ZM1214.53 179.05C1218.61 175.67 1220.64 171.25 1220.64 165.79C1220.64 160.33 1218.65 155.997 1214.66 152.79C1210.68 149.497 1205.65 147.85 1199.58 147.85H1187.36C1183.9 147.85 1182.16 149.583 1182.16 153.05V182.3C1182.16 183.427 1182.64 183.99 1183.59 183.99H1199.58C1205.56 183.99 1210.55 182.343 1214.53 179.05ZM1204 142C1212.32 142 1219.13 144.123 1224.41 148.37C1229.79 152.617 1232.47 158.25 1232.47 165.27C1232.47 172.203 1229.83 177.967 1224.54 182.56C1219.34 187.067 1213.54 189.407 1207.12 189.58L1206.99 189.84C1208.81 190.447 1210.24 191.573 1211.28 193.22L1230.91 224.42C1232.73 227.453 1235.59 229.23 1239.49 229.75L1241.83 230.01C1242.96 230.183 1243.52 230.747 1243.52 231.7C1243.52 232.913 1242.87 233.52 1241.57 233.52C1233.25 233.173 1228.05 233 1225.97 233C1223.98 233 1222.42 232.133 1221.29 230.4L1199.32 193.87C1197.59 191.183 1195.68 189.84 1193.6 189.84C1193.6 189.84 1193.56 189.84 1193.47 189.84H1184.11C1182.81 189.84 1182.16 190.36 1182.16 191.4V224.42C1182.16 225.98 1182.73 227.237 1183.85 228.19C1184.98 229.143 1186.37 229.663 1188.01 229.75L1193.47 230.01C1194.43 230.01 1194.9 230.617 1194.9 231.83C1194.9 232.957 1194.3 233.52 1193.08 233.52L1176.83 233L1162.4 233.52C1161.28 233.52 1160.63 233 1160.45 231.96C1160.45 230.747 1160.97 230.097 1162.01 230.01L1165.78 229.75C1169.34 229.49 1171.11 227.713 1171.11 224.42V150.58C1171.11 147.46 1169.12 145.727 1165.13 145.38L1161.36 144.99C1160.41 144.817 1159.93 144.253 1159.93 143.3C1159.93 142.087 1160.54 141.48 1161.75 141.48L1179.69 142H1204ZM1266.94 204.4H1265.64C1264.6 204.4 1263.99 203.75 1263.82 202.45C1263.73 201.15 1263.69 199.46 1263.69 197.38C1263.69 195.3 1264.03 192.7 1264.73 189.58C1265.51 186.373 1266.68 183.427 1268.24 180.74C1269.88 177.967 1271.53 175.367 1273.18 172.94C1277.34 167.047 1279.42 162.063 1279.42 157.99C1279.42 153.917 1278.38 150.84 1276.3 148.76C1274.3 146.68 1271.62 145.64 1268.24 145.64C1264.86 145.64 1262.17 146.68 1260.18 148.76C1258.18 150.753 1256.41 153.44 1254.85 156.82C1253.37 160.2 1252.03 161.89 1250.82 161.89C1250.21 161.89 1249.69 161.63 1249.26 161.11C1248.91 160.59 1248.74 160.113 1248.74 159.68V149.41C1248.74 147.503 1250.64 145.553 1254.46 143.56C1258.36 141.567 1263.38 140.57 1269.54 140.57C1275.78 140.57 1281.02 142.087 1285.27 145.12C1289.51 148.153 1291.64 152.617 1291.64 158.51C1291.64 164.057 1289.17 169.517 1284.23 174.89C1282.15 177.143 1280.02 179.483 1277.86 181.91C1272.66 187.717 1269.58 194.737 1268.63 202.97C1268.63 203.923 1268.06 204.4 1266.94 204.4ZM1266.16 218.44C1268.41 218.44 1270.32 219.22 1271.88 220.78C1273.44 222.34 1274.22 224.247 1274.22 226.5C1274.22 228.667 1273.39 230.53 1271.75 232.09C1270.19 233.65 1268.32 234.43 1266.16 234.43C1263.99 234.43 1262.13 233.65 1260.57 232.09C1259.01 230.53 1258.23 228.667 1258.23 226.5C1258.23 224.333 1259.01 222.47 1260.57 220.91C1262.13 219.263 1263.99 218.44 1266.16 218.44Z" fill="#3D2F2B" fill-opacity="0.05"/>
</svg>
