<svg width="9" height="8" viewBox="0 0 9 8" fill="none" xmlns="http://www.w3.org/2000/svg">
<path fill-rule="evenodd" clip-rule="evenodd" d="M2.7264 1.77778C2.7264 1.30628 2.92064 0.854097 3.26639 0.520699C3.61213 0.187301 4.08106 0 4.57002 0C5.05898 0 5.52791 0.187301 5.87366 0.520699C6.21941 0.854097 6.41364 1.30628 6.41364 1.77778C6.41364 2.24927 6.21941 2.70146 5.87366 3.03486C5.52791 3.36825 5.05898 3.55556 4.57002 3.55556C4.08106 3.55556 3.61213 3.36825 3.26639 3.03486C2.92064 2.70146 2.7264 2.24927 2.7264 1.77778ZM2.7264 4.44444C2.1152 4.44444 1.52904 4.67857 1.09686 5.09532C0.664673 5.51207 0.421875 6.0773 0.421875 6.66667C0.421875 7.02029 0.567554 7.35943 0.826863 7.60948C1.08617 7.85952 1.43787 8 1.80459 8H7.33545C7.70217 8 8.05387 7.85952 8.31318 7.60948C8.57249 7.35943 8.71817 7.02029 8.71817 6.66667C8.71817 6.0773 8.47537 5.51207 8.04319 5.09532C7.61101 4.67857 7.02484 4.44444 6.41364 4.44444H2.7264Z" fill="black"/>
</svg>
