<svg width="1280" height="731" viewBox="0 0 1280 731" fill="none" xmlns="http://www.w3.org/2000/svg">
<g clip-path="url(#clip0_515_111)">
<rect width="1280" height="731" fill="#EFD3CA"/>
<g opacity="0.4">
<ellipse cx="6.46168" cy="6.33934" rx="6.46168" ry="6.33934" transform="matrix(0.818519 0.574479 0.574479 -0.818519 1193.61 84.7627)" fill="#A26464"/>
<path d="M1075.7 31.5662C1150.16 57.0001 1215.08 87.5598 1259.84 116.405C1282.22 130.828 1299.56 144.817 1310.54 157.518C1321.52 170.228 1326.09 181.604 1323.05 190.818C1320.01 200.032 1309.61 206.296 1293.32 209.688C1277.04 213.078 1254.91 213.587 1228.51 211.345C1175.7 206.861 1105.82 191.372 1031.36 165.938C956.902 140.504 891.986 109.945 847.221 81.0996C824.838 66.6764 807.5 52.687 796.526 39.9864C785.544 27.2767 780.972 15.9009 784.013 6.68656C787.054 -2.52782 797.447 -8.79155 813.742 -12.1837C830.026 -15.5733 852.149 -16.0829 878.552 -13.8408C931.357 -9.35679 1001.25 6.13233 1075.7 31.5662Z" stroke="#A26464" stroke-width="0.3"/>
<path d="M1069.05 78.5325C1143.51 103.966 1208.43 134.526 1253.19 163.371C1275.58 177.794 1292.91 191.784 1303.89 204.484C1314.87 217.194 1319.44 228.57 1316.4 237.784C1313.36 246.999 1302.97 253.262 1286.67 256.654C1270.39 260.044 1248.26 260.554 1221.86 258.312C1169.06 253.828 1099.17 238.338 1024.71 212.905C950.254 187.471 885.338 156.911 840.573 128.066C818.189 113.643 800.851 99.6533 789.877 86.9527C778.896 74.243 774.324 62.8673 777.365 53.6529C780.405 44.4385 790.799 38.1748 807.094 34.7827C823.378 31.393 845.501 30.8834 871.904 33.1255C924.708 37.6095 994.598 53.0986 1069.05 78.5325Z" stroke="#A26464" stroke-width="0.3"/>
<ellipse cx="10.7695" cy="10.5656" rx="10.7695" ry="10.5656" transform="matrix(0.818519 0.574479 0.574479 -0.818519 848.279 141.865)" fill="#A26464"/>
</g>
</g>
<defs>
<clipPath id="clip0_515_111">
<rect width="1280" height="731" fill="white"/>
</clipPath>
</defs>
</svg>
